<svg id="Layer_1" data-name="Layer 1" xmlns="http://www.w3.org/2000/svg" viewBox="0 0 1023.91 1023.68"><defs><style>.cls-1{fill:#fd6805;}.cls-2{fill:#fefefe;}.cls-3{fill:#022146;}.cls-4{fill:#012147;}.cls-5{fill:#fbfaf9;}.cls-6{fill:#814628;}.cls-7{fill:#774228;}.cls-8{fill:#70564e;}.cls-9{fill:#844525;}.cls-10{fill:#784025;}.cls-11{fill:#f8b483;}.cls-12{fill:#774229;}.cls-13{fill:#7c3f22;}.cls-14{fill:#74422c;}.cls-15{fill:#7f4529;}.cls-16{fill:#83472a;}.cls-17{fill:#944b24;}.cls-18{fill:#804426;}.cls-19{fill:#804328;}.cls-20{fill:#864624;}.cls-21{fill:#86675a;}.cls-22{fill:#804f39;}.cls-23{fill:#022147;}.cls-24{fill:#032147;}.cls-25{fill:#3d3a45;}.cls-26{fill:#f5b180;}.cls-27{fill:#934a22;}.cls-28{fill:#67504b;}.cls-29{fill:#f4a66f;}.cls-30{fill:#623e30;}.cls-31{fill:#ac7656;}.cls-32{fill:#8292a8;}.cls-33{fill:#f5b585;}.cls-34{fill:#f7b88b;}.cls-35{fill:#f3a975;}.cls-36{fill:#8c9aac;}.cls-37{fill:#f4b07e;}.cls-38{fill:#f5b27f;}.cls-39{fill:#ebae84;}.cls-40{fill:#f6b685;}.cls-41{fill:#f4af7c;}.cls-42{fill:#f6b17e;}.cls-43{fill:#f5b382;}.cls-44{fill:#768499;}.cls-45{fill:#8494a7;}.cls-46{fill:#7c8c9e;}.cls-47{fill:#f9b281;}.cls-48{fill:#f8bb90;}.cls-49{fill:#f9c199;}.cls-50{fill:#7b8aa1;}.cls-51{fill:#838fa1;}.cls-52{fill:#8495a4;}.cls-53{fill:#032247;}.cls-54{fill:#844727;}.cls-55{fill:#904925;}.cls-56{fill:#7f4326;}.cls-57{fill:#834526;}.cls-58{fill:#814527;}.cls-59{fill:#7d4222;}.cls-60{fill:#8d4925;}.cls-61{fill:#764227;}.cls-62{fill:#7a4329;}.cls-63{fill:#7b4229;}.cls-64{fill:#723f28;}.cls-65{fill:#874727;}.cls-66{fill:#8f4a23;}.cls-67{fill:#7d4225;}.cls-68{fill:#864626;}.cls-69{fill:#80452b;}.cls-70{fill:#7d4229;}.cls-71{fill:#7e4629;}.cls-72{fill:#8e4924;}.cls-73{fill:#7e4425;}.cls-74{fill:#7f4428;}.cls-75{fill:#8b4822;}</style></defs><path class="cls-1" d="M951.5,28.05h17a1.23,1.23,0,0,0,.93.25c9.32-.13,18.64.11,28,.53,10.23.47,20.4,1.71,30.55,3.06A506.46,506.46,0,0,1,1110.6,50a520.35,520.35,0,0,1,61,23.09,512.93,512.93,0,0,1,131.66,86.12q14.67,13.24,28.3,27.51a510.59,510.59,0,0,1,60.31,77,517.24,517.24,0,0,1,30.42,54.54,505.83,505.83,0,0,1,20.23,48.4A513,513,0,0,1,1463.2,442q4.88,25,7.22,50.44c1.1,11.78,1.21,23.59,1.3,35.4,0,.89-.28,1.82.23,2.68v19a1.25,1.25,0,0,0-.25.93c.12,9.08-.09,18.15-.53,27.21-.56,11.48-2,22.89-3.57,34.27a512.37,512.37,0,0,1-24.5,99.58c-5.8,16.35-12.5,32.31-19.89,48a510.77,510.77,0,0,1-53.41,88.42c-9.52,12.75-19.71,25-30.43,36.75-7.53,8.25-15.19,16.37-23.25,24.09a527.59,527.59,0,0,1-61,50.36,516.44,516.44,0,0,1-76.18,44.31,503.58,503.58,0,0,1-48.05,19.78,516.57,516.57,0,0,1-67.86,18.86,505.66,505.66,0,0,1-51.36,7.84c-9.62,1-19.24,1.37-28.9,1.6-14,.34-28,.22-42,.15-24.46-.12-48.65-3.09-72.7-7.45a511.14,511.14,0,0,1-72.76-18.85,516.3,516.3,0,0,1-164.64-92.59,490.84,490.84,0,0,1-40.72-38,512.56,512.56,0,0,1-56.66-70.7c-9.44-14.24-18.12-28.94-26.19-44a510.86,510.86,0,0,1-53.52-160.48c-1.76-11.28-3.07-22.61-4.25-34-.5-4.8-.59-9.63-.73-14.45-.19-6.49-.39-13-.27-19.48a1.55,1.55,0,0,0-.25-1.18v-21a1.25,1.25,0,0,0,.25-.93c-.15-8.91.16-17.81.53-26.7.35-8.57,1.4-17.09,2.47-25.6a507.22,507.22,0,0,1,16.47-79.7,516.19,516.19,0,0,1,69.06-146,526.77,526.77,0,0,1,37.84-48.72c10.24-11.77,21.1-22.94,32.37-33.68a500.88,500.88,0,0,1,58.58-47.87,514,514,0,0,1,98.17-53.89,509.52,509.52,0,0,1,69.42-23.12A499,499,0,0,1,902.48,30.6c10.6-1.16,21.2-2,31.87-2.13,5.07-.06,10.15-.06,15.22-.18C950.22,28.27,950.91,28.51,951.5,28.05Z" transform="translate(-448.05 -28.05)"/><path class="cls-2" d="M608,321.84c1.5-2.58,3.89-2.92,6.63-2.92q108.6,0,217.2,0H1268q25.37,0,50.74.09c1.32,0,2.67-.15,3.89.59,2.68,1.64,2.85,3.87.53,6.9-1.23,1.21-2.78,1.29-4.4,1.29h-37.11c-.75,0-1.5,0-2.24,0-1.85.17-2.78,1-2.76,3,.06,5.07.13,10.13,0,15.19-.82.74-.49,1.72-.49,2.59,0,17.67-.34,35.34.12,53,.28,10.74.75,21.47.22,32.18-.28,5.83-.37,11.64-.37,17.46q0,185.19,0,370.39c0,1,0,2-.07,3-.21,2.2-1.28,3.51-3.67,3.5-1.13,0-2.37-.31-3.29.71a4.1,4.1,0,0,1-3.42,1.15H1140.82c-4.92-.07-7.23-2.21-7.77-7.21.17-6.95.77-13.92-.65-20.83a6.45,6.45,0,0,1-.14-1.24c.16-7.56-.91-15-1.86-22.48-.39-3.05-.94-6-1.52-9-2.16-9.31-3.54-18.79-6.14-28a333.46,333.46,0,0,0-18.7-51.58,291.87,291.87,0,0,0-30-50.3,251.51,251.51,0,0,0-34.58-37.62,216.71,216.71,0,0,0-42.25-29.57,184.87,184.87,0,0,0-28.38-12.3c-2.23-.74-4.24-.21-6.31.54a201.74,201.74,0,0,0-27.61,12.23,19.68,19.68,0,0,1-2.05.91,20.83,20.83,0,0,0-6.31,3.6q-9.45,6-18.5,12.7a261.34,261.34,0,0,0-25.79,22.37c-.6.58-1.17,1.18-1.81,1.71-3,2.84-6.11,5.51-8.33,9-3.68,4.49-7.46,8.9-11.13,13.39a9,9,0,0,0-3,3.91,56.73,56.73,0,0,1-5,7.2c-2.75,3.5-4.9,7.4-7.49,11-1.57,2.19-2.57,4.78-4.61,6.64-3.23,5.27-6.14,10.7-8.84,16.26-.28.58-.61,1.13-.92,1.7a23.67,23.67,0,0,1-2,4h0c-3.53,7.81-7,15.66-10.09,23.66-.43,1.09-.25,2.31-1,3.28-1.75,3.45-2.67,7.21-3.84,10.86-2.71,8.42-5.13,16.94-7,25.6-2.16,9.83-3.74,19.73-5.24,29.68-1.93,12.71-1.78,25.49-2.43,38.25a27.29,27.29,0,0,1-.4,3.72c-.86,4.39-.89,6.74-7,7.11a5,5,0,0,1-3.32.81H667.24c-2.78,0-5.37-1-8.1-1.35-1.48-.17-2.4-1.41-2.95-2.79a12.35,12.35,0,0,1-.68-4.67c0-55.49-.43-111,.11-166.46.7-70.8.07-141.61.39-212.41-1.57-10.93-1.3-21.95-.9-32.91.72-19.65,0-39.3.48-58.95.11-4.9.39-9.8.44-14.71,0-1.94-.42-3.81-.55-5.72a1.94,1.94,0,0,0-2.13-1.95c-.84,0-1.67,0-2.5,0H614.61a14.66,14.66,0,0,1-3.24-.18c-2.51-.54-3.7-1.94-4-4.67A2.22,2.22,0,0,1,608,321.84Z" transform="translate(-448.05 -28.05)"/><path class="cls-3" d="M1326.9,268.92c-2.52,5.07-5.07,10.12-7.53,15.22-.76,1.56-1.85,2-3.54,2.12-12.06.79-24.14.6-36.22.6q-336.07,0-672.17,0a97,97,0,0,1-11.94-.42c-5.06-.63-5.47-4.48-4.31-7.45,1.75-4.5,4.13-8.76,6.33-13.09a4.29,4.29,0,0,1,2.7-2.07c2.34-.44,4.7-1,6,1.93.14.34.66.44,1,.67a9.58,9.58,0,0,0,4.57,1.07h3.75q350.87,0,701.71,0c2.83,0,5.63-.5,8.46-.24C1326.41,267.59,1327.44,267.66,1326.9,268.92Z" transform="translate(-448.05 -28.05)"/><path class="cls-4" d="M608,323c.67,3.22,1.75,4.15,5.44,4.17,13.08.05,26.17,0,39.25,0,3.5,0,4.06-.76,4,3.84-.11,24.07.16,48.16-.23,72.23-.16,10.07-.41,20.15-.21,30.21,1.22,64.31.32,128.62.47,192.93.16,64.83-.08,129.65-.13,194.47a24.54,24.54,0,0,0,.2,3.74c.44,2.82,1.34,3.44,4.15,3.59,32.51,1.69,65,.28,97.58.73,11.16.15,22.32.18,33.48.26-.48,2.86-.81,5.75-2.2,8.37a7.36,7.36,0,0,0-.42.9c-.67,1.82-.14,4.27-2.2,5.33-3.23,1.67-6.32,3.38-10.34,3.37-41.49-.18-83-.13-124.47-.19a39.74,39.74,0,0,1-6.41-.75,3.33,3.33,0,0,1-3-3.61c0-3-.05-6-.05-9q0-187.33,0-374.66c0-8.56-.55-17.14-.35-25.71.69-28.15.23-56.3.45-84.45,0-3.08-.63-3.66-3.75-3.64-12.58.08-25.16,0-37.74,0a35.38,35.38,0,0,1-4-.12,4.93,4.93,0,0,1-4.07-7c.46-1.06,1.07-2.05,1.62-3.07,2.19-3.22,3.46-6.94,5.48-10.27C602.32,321.72,605.13,321,608,323Z" transform="translate(-448.05 -28.05)"/><path class="cls-4" d="M880,613.47a224.87,224.87,0,0,1,38.39-32c2.54-1.68,5.12-3.29,7.69-4.92,2.19-1.1,4.27-2.37,6.36-3.64,9.14-4.89,18.41-9.47,28.3-12.66a12.42,12.42,0,0,0,2.27-1c4.08-2.29,7.59.29,11.07,1.57a202,202,0,0,1,56.25,32,251,251,0,0,1,44.24,45.83,287.27,287.27,0,0,1,27.11,43.85,261.2,261.2,0,0,1,12.11,28.07q5.48,15.07,9.71,30.52c2.47,9,4.16,18.2,6,27.35.9,6.86,2,13.69,2.55,20.6a290.42,290.42,0,0,1,1.46,29.49,8.16,8.16,0,0,0,.48,3.91c.85,5.47,2.08,6.54,7.63,6.54l125.28-.09c.74,0,1.49-.06,2.24-.1.58,4.72-2.25,8.68-2.94,13.11a2.37,2.37,0,0,1-1.32,1.72c-4,1.75-8,3.38-12.63,3.37-28-.11-56.1-.07-84.14-.06-13.23,0-26.47-.14-39.7.15-6.57.14-8.19-2.12-8.47-8.1a4.39,4.39,0,0,1-.43-2.66c0-6.4.15-12.8-.25-19.2a3.2,3.2,0,0,0-.24-1.7c0-.16,0-.33,0-.49-.86-2-.39-4-.48-6-.06-1.22.1-2.46-.69-3.53-.39-6.11-1.33-12.15-2.3-18.19a38.07,38.07,0,0,0-2-10.13c-.2-4.54-1.61-8.82-2.72-13.18-.78-3.08-1.49-6.19-2.34-9.26-.81-2.9-1.55-5.81-2.46-8.68h0c-.64-2-1.24-4-2-6l-3-8c-.71-.86-.21-2.14-1-3h0c-1.9-5-3.84-10.06-6-15a293.47,293.47,0,0,0-16.83-32.59,263.13,263.13,0,0,0-20.42-29.59c-1.28-1.58-2.51-3.2-3.77-4.8-2.36-2.81-4.8-5.56-7.18-8.37-6-6.47-12.19-12.77-18.78-18.66a218.17,218.17,0,0,0-37-27c-3-1.7-6-3.39-9-5-5.87-2.95-11.84-5.67-18-8-2.91-1.06-5.83-2.07-8.68-3.26-2.21-.92-4.11.24-5.93.93A157.38,157.38,0,0,0,929,586l-9.47,5c-4.91,2.87-9.84,5.72-14.48,9l-7,5a132.74,132.74,0,0,0-10.54,8.39c-1.84,1.5-3.71,3-5.43,4.62-4.87,4.54-9.71,9.11-14.22,14-3.66,4-7.23,8.06-10.83,12.09-1.38,1.56-2.51,3.31-3.93,4.83l-.07.08c-1.42-.11-1.44-.16-.55-2q2.47-3.57,5-7.12c1-1.31,2-2.68,3-4q5.57-6.69,11.12-13.4C874.23,619.39,877.31,616.62,880,613.47Z" transform="translate(-448.05 -28.05)"/><path class="cls-5" d="M1326,267.87c-4.28.92-8.64.67-13,.68q-124.37.07-248.71.05H623.85c-4.25,0-8.5-.08-12.74-.17-1.82,0-3.69,0-5.07-1.56-.81-1.47-1.45-2.94-.37-4.56a6.74,6.74,0,0,1,5.36-2.16c5.42,0,10.83-.08,16.24-.08h682c4.33,0,8.66,0,13,.1,3.59.07,5.18,1.51,5.65,4.92C1327.36,266.09,1327.45,267.54,1326,267.87Z" transform="translate(-448.05 -28.05)"/><path class="cls-6" d="M1276.64,346a2.13,2.13,0,0,1-.61-1.82c0-5.15,0-10.3,0-15.45,0-2,1.38-1.72,2.59-1.72q18.95,0,37.89,0a23.76,23.76,0,0,0,6.68-.56,6.61,6.61,0,0,1-2.25,5.51c-.13-.3,0,.05-.16-.18-.8-.87,0-2.36-1-3-1.18-.71-2.61-.31-3.93-.32q-17.24,0-34.48,0c-3.28,0-3.42.15-3.45,3.35s0,6.49,0,9.74c0,1.67.64,2.42,2.36,2.42q15.5,0,31,0c2.59,0,3.66-1.73,4.48-3.68,1-2.31,2-4.59,3-6.84.4-.83.7-2,2.11-1.5a40.52,40.52,0,0,1-5.28,12.7c-.8,1.35-2.49,1.4-4.06,1.39C1300,346,1288.3,346.05,1276.64,346Z" transform="translate(-448.05 -28.05)"/><path class="cls-7" d="M929,586c.89-1.88,2.93-2.07,4.49-2.75,5.66-2.45,11.43-4.66,17.19-6.9,1.79-.7,3.47-.14,5.24.53,2.44.93,5,1.51,7.11,3.16-2,.38-3.64-.62-5.15-1.45-4.34-2.38-8.26-1-12.33.69-5.16,2.11-10.38,4.08-15.33,6.66A3.06,3.06,0,0,1,929,586Z" transform="translate(-448.05 -28.05)"/><path class="cls-8" d="M852.46,647c.5.6-.77,1.66.55,2a3.24,3.24,0,0,1-.33,1.14c-3.43,4.3-6.74,8.69-9.76,13.29a2.79,2.79,0,0,1-2.1,1.58A118.18,118.18,0,0,1,852.46,647Z" transform="translate(-448.05 -28.05)"/><path class="cls-9" d="M1027,620a1.52,1.52,0,0,1,1.37.43c6.06,5.84,12.36,11.45,17.63,18.06a.43.43,0,0,1-.11.7c-4.61-4.62-9.24-9.22-13.81-13.88C1030.37,623.54,1028.08,622.33,1027,620Z" transform="translate(-448.05 -28.05)"/><path class="cls-10" d="M1106,746c1.68.91,1.26,2.78,1.65,4.14,2.22,7.75,4.19,15.58,6.17,23.4A17.33,17.33,0,0,1,1114,777c-1,.11-.64-.63-.76-1.09-.15-.63.41-1.43-.47-1.87-1-1.18-.57-2.68-.89-4q-2.07-8.73-4.5-17.37C1106.76,750.5,1105.53,748.38,1106,746Z" transform="translate(-448.05 -28.05)"/><path class="cls-11" d="M818,714c-.31-2.61,1.2-4.69,2-7,2.21-6.05,4.89-11.89,7.59-17.72.37-.8.57-1.76,1.45-2.25.16,2.44-1.36,4.36-2.28,6.37-3,6.44-5.61,13-8.06,19.63A4,4,0,0,1,818,714Z" transform="translate(-448.05 -28.05)"/><path class="cls-12" d="M608,323c-4.59-1.12-5.8-.57-8,3.73-1.13,2.19-2.22,4.41-3.39,6.6-.36.68-.49,1.64-1.56,1.71.58-2.95,2.32-5.39,3.65-8a14.73,14.73,0,0,1,2.5-4,5.75,5.75,0,0,1,6.86-1.16C608,322.21,608,322.59,608,323Z" transform="translate(-448.05 -28.05)"/><path class="cls-13" d="M1119,815.46c.93,1.76.75,3.76.82,5.59a179.5,179.5,0,0,1,.1,18c-.7-.17-.86-.71-.86-1.34Z" transform="translate(-448.05 -28.05)"/><path class="cls-14" d="M882.06,618c0-1,.82-1.42,1.41-1.92,4.21-3.58,8.48-7.09,12.71-10.65A2.16,2.16,0,0,1,898,605c-1.77,2.52-4.55,3.89-6.75,5.94-2.51,2.33-5.24,4.42-7.87,6.63A1.59,1.59,0,0,1,882.06,618Z" transform="translate(-448.05 -28.05)"/><path class="cls-15" d="M905,600c1.82-2.62,4.83-3.64,7.32-5.32,2.21-1.49,4.39-3.22,7.16-3.69-2.71,2.73-6.25,4.22-9.49,6.12C908.36,598.08,907.33,600.2,905,600Z" transform="translate(-448.05 -28.05)"/><path class="cls-16" d="M1094,714c1.76,1.09,1.81,3.12,2.44,4.77,1.29,3.36,3.43,6.45,3.56,10.22A63.93,63.93,0,0,1,1094,714Z" transform="translate(-448.05 -28.05)"/><path class="cls-17" d="M1116,787c.73,6.11,2.28,12.12,2.14,18.33a.57.57,0,0,1-.23.83L1115,786C1116,785.7,1115.56,786.71,1116,787Z" transform="translate(-448.05 -28.05)"/><path class="cls-18" d="M1116,787c-.31-.33-.62-.67-.94-1q-1.11-6-2.25-12c1.33.61.23,2.21,1.23,3C1115.31,780.18,1115.51,783.59,1116,787Z" transform="translate(-448.05 -28.05)"/><path class="cls-19" d="M1045.9,639.16c0-.23.07-.47.11-.7,2.56,2.65,5.3,5.16,7,8.54C1050,645,1048.1,641.92,1045.9,639.16Z" transform="translate(-448.05 -28.05)"/><path class="cls-20" d="M981,588a21.26,21.26,0,0,1,9,5A25.25,25.25,0,0,1,981,588Z" transform="translate(-448.05 -28.05)"/><path class="cls-21" d="M605.67,262.3a18.86,18.86,0,0,0,.37,4.56c-.08,0-.22,0-.23-.05-.81-3-3.15-3.08-5.59-3,.36-1.32,1.46-.71,2.22-.77A5.76,5.76,0,0,0,605.67,262.3Z" transform="translate(-448.05 -28.05)"/><path class="cls-13" d="M1117.86,806.13l.23-.83c1.51,3.11.89,6.42.89,9.67C1117.25,812.19,1118.25,809.07,1117.86,806.13Z" transform="translate(-448.05 -28.05)"/><path class="cls-10" d="M1104,740a8.06,8.06,0,0,1,2,6A8,8,0,0,1,1104,740Z" transform="translate(-448.05 -28.05)"/><path class="cls-8" d="M853.08,649a10.45,10.45,0,0,1,3.93-4.83A8.74,8.74,0,0,1,853.08,649Z" transform="translate(-448.05 -28.05)"/><path class="cls-22" d="M1326,267.87a9.39,9.39,0,0,1,2-2.79c-.33,1.28,1.11,3-1,3.84C1326.83,268.35,1326.36,268.13,1326,267.87Z" transform="translate(-448.05 -28.05)"/><path class="cls-11" d="M829.05,687a6.58,6.58,0,0,1,2-4A4.4,4.4,0,0,1,829.05,687Z" transform="translate(-448.05 -28.05)"/><path class="cls-16" d="M1100,729c1.62.55.91,1.9,1,3A3,3,0,0,1,1100,729Z" transform="translate(-448.05 -28.05)"/><path class="cls-1" d="M670,770.48a1.86,1.86,0,0,0,0-.47c.94-2.47.23-5.09.71-7.6.09-.48-.09-1,.27-1.43.46-2.65,1.19-5.26,1-8,.83-5.19,1.71-10.37,2.51-15.56.69-4.4,1.7-8.75,2.53-13.13,1.32-6.94,3.46-13.7,4.58-20.68a85.86,85.86,0,0,0,2.37-8.62h0c.74-.88.36-2.11,1-3h0c.89-.81.21-2.14,1-3a1.63,1.63,0,0,0,.06-.45c.69-2,1.24-4,1.94-6,2-6.71,4.45-13.29,6.85-19.87,3.2-8.74,7-17.25,10.57-25.83A4.47,4.47,0,0,1,706,636c1.81-4.41,4.06-8.62,6-13h0a77.35,77.35,0,0,0,4-8c3.15-7,7.38-13.4,11-20.13.77-1.42,1.95-2.48,2.74-3.83a30.86,30.86,0,0,0,4.39-5.66c3.48-5.27,7.55-10.1,11.17-15.26a3.2,3.2,0,0,1,.42-.55,8.2,8.2,0,0,0,2.94-3.9,156.85,156.85,0,0,1,10.94-12.92c2-2.12,3.77-4.42,5.71-6.58a6.28,6.28,0,0,1,2.27-1.89c2.59-1.21,3.89-3.79,5.87-5.64,3.07-2.88,6.25-5.68,9.05-8.84a3.5,3.5,0,0,0,.85-1.21c2.75-3.61,6.48-6.16,9.79-9.15,7.45-6.73,15.42-12.81,23.47-18.8a8.49,8.49,0,0,1,2.13-1.26,47.06,47.06,0,0,0,10-6.9c7.84-6,16.46-10.7,25.09-15.36a314.83,314.83,0,0,1,30.26-14.25A227.57,227.57,0,0,1,906,455.26c3.58.3,6.58-1.78,9.93-2.45,1.23-.25,2.64-.3,3.73-1.17a2.38,2.38,0,0,1,.77-.28c4.3-.33,8.37-1.78,12.59-2.56,5.58-1,11.13-2.23,16.76-3.07,3.44-.51,6.71.3,10,.65a42.27,42.27,0,0,0,6.11,1c4.42,1,8.87,1.85,13.27,2.89s9.14,1.9,13.47,3.71a11.79,11.79,0,0,0,2.69.38,2.13,2.13,0,0,1,.74.23c1.93.77,3.81,1.69,6,1.69a40.87,40.87,0,0,1,9,3.1c4.07,2.54,8.79,3.53,13.1,5.52,4.6,1.65,9,3.75,13.41,5.84a8.28,8.28,0,0,0,2.39.68,37.06,37.06,0,0,1,8.26,4.06c4.36,3.29,9.47,5.26,14.09,8.09a58.55,58.55,0,0,0,6.91,3.78,26.78,26.78,0,0,1,8.2,5.23,76.11,76.11,0,0,0,11.81,7.88c6.33,4.28,12.4,8.92,18.31,13.75,4,3.26,7.79,6.73,11.86,9.89a3.86,3.86,0,0,1,1.24,1.53c.76,1.73,2.26,2.83,3.63,4,3.1,2.56,5.7,5.66,8.94,8,1,1.08,2.13,2.08,3.11,3.2a93.47,93.47,0,0,0,11,11.66,270.36,270.36,0,0,1,26.19,32.18c1.53,3.65,4.27,6.5,6.45,9.71a3,3,0,0,1,.45.5,13.28,13.28,0,0,0,2,3c1.82,1.66,2.78,3.89,3.94,6,1,3,3.5,5.08,4.67,8a7,7,0,0,0,1.12,2.16,2.39,2.39,0,0,1,.36.59c1.94,3.08,3.68,6.29,5.85,9.22a8.89,8.89,0,0,1,2.24,4.14c.59,3,2.7,5.24,4,7.89,2.56,5.27,5,10.61,7.75,15.78.67,1.3,1,2.76,1.78,4a2.66,2.66,0,0,1,.32.6,10.66,10.66,0,0,0,2,3.87c.71,1.66,1.81,3.15,2.19,5,.2,3.13,1.91,5.76,3.06,8.54,2.51,6.12,4.51,12.42,6.86,18.59a21.52,21.52,0,0,0,2,5.45,12.45,12.45,0,0,1,1,2.35,5.7,5.7,0,0,0,.91,3,2.85,2.85,0,0,1,.25,1.11c1.36,4.63,2.36,9.35,3.93,13.91.36,3.2,1.47,6.22,2.24,9.32,2.32,9.37,4.41,18.79,5.87,28.34a14.91,14.91,0,0,0,1,3.32c1.63,2.94,1.21,6.3,1.7,9.44.6,3.87,1.57,7.76,1.39,11.75-.11,2.8-.58,5.57.64,8.33.59,1.33.17,3,.2,4.47.17,8,1.61,15.87,1,23.86-.09,1.12.34,2.38-.82,3.23a4.85,4.85,0,0,1-2.44.34c-12.32,0-24.64-.08-37,0-2.63,0-3.22-.89-3.17-3.32a335.08,335.08,0,0,0-1.49-35.14c-.72-8.52-1.61-17-3-25.48a243.84,243.84,0,0,0-4.67-24.24c-.47-1.74-.53-3.6-1.21-5.31-1.35-6.78-3.3-13.41-5.2-20.05-2-7-4.26-14-6.86-20.88a328.65,328.65,0,0,0-14.83-35.73c-2.31-4.8-4.77-9.52-7.16-14.28-2.93-5.38-5.85-10.76-9-16-1.42-1.4-2-3.35-3.06-5-4.87-7.42-9.7-14.87-14.93-22l-6-8q-4.32-5.64-9-11c-.8-.55-.9-1.75-1.93-2.09-2.65-3.59-5.81-6.72-8.77-10-1.76-2-3.7-3.76-5.4-5.77-2.48-2.35-4.93-4.74-7.45-7-4.8-4.38-9.64-8.71-14.46-13.06-3.82-3-7.47-6.12-11.3-9.07-.53-.41-1.18-.52-1.64-1-4.46-3.62-9.24-6.8-14-10-3.66-2.35-7.28-4.77-11.08-6.91a262.45,262.45,0,0,0-25.26-13.23c-5.51-2.44-11-4.87-16.74-6.78-5.57-2.25-11.34-3.88-17.07-5.68s-11.93-2.62-17.69-4.68c-2.5-.89-4.7.59-7,1.05-6.16,1.23-12.2,3-18.21,4.8a66.08,66.08,0,0,0-8.2,2.7c-2.69.64-5.15,1.92-7.75,2.78h0c-1.6.82-3.37,1.24-5,2h0c-2.31,1.05-4.73,1.86-7,3h0c-4.41,1.93-8.74,4-13,6.17A74.71,74.71,0,0,0,891,507l0,0c-6.53,3.52-12.8,7.47-19,11.59a56,56,0,0,0-7.85,5.65,75.15,75.15,0,0,0-9.1,6.4C844.05,539,834,548.51,823.89,558a84.45,84.45,0,0,0-8.55,9.3C810.21,573.2,805,579,800.17,585.16c-4.6,5.9-9.29,11.73-13.49,17.93-6.91,10.2-13.83,20.39-19.47,31.38a6.72,6.72,0,0,1-1.55,2.25,50.36,50.36,0,0,0-7,13.45c-2.6,5.34-5.1,10.73-7.74,16.05a8,8,0,0,1-1.33,2.07,47.45,47.45,0,0,0-4.88,10.37,4.15,4.15,0,0,1-.22.68,14.13,14.13,0,0,0-1.94,5c-2.51,7.16-5.8,14-8,21.32a4.7,4.7,0,0,1-.69,1.31,5,5,0,0,0-1.23,2.7,3.33,3.33,0,0,1-.21.63,7.2,7.2,0,0,0-.82,2.47,3.72,3.72,0,0,1-.22.64,11,11,0,0,0-.9,2.62,3.41,3.41,0,0,1-.35.65c-1.93,5.53-3.46,11.18-5.07,16.8a24.5,24.5,0,0,0-1.43,7.2,2.78,2.78,0,0,1-.29.74,52.47,52.47,0,0,0-2.43,11.7,45.09,45.09,0,0,1-2.17,10.26c-1.49,3.91-1.78,8.09-2.37,12.16-1.09,7.44-2,14.91-2.82,22.39-.57,5.14-.59,10.23-.81,15.35-.08,2-.66,3.93-.48,5.94,0,.69-.39,1-1,1.21-13.4.16-26.8,0-40.2.08-1.8,0-2.55-.66-2.53-2.49.1-10.73-.51-21.49.42-32.17C669.37,780.71,669.12,775.55,670,770.48Z" transform="translate(-448.05 -28.05)"/><path class="cls-4" d="M819,500a326.56,326.56,0,0,0-28.34,22.82A86.55,86.55,0,0,0,784,529c-4.74,4.4-9.44,8.85-14,13.5-.76.77-1.38,1.64-2,2.46-3.28,3-6,6.5-8.91,9.79-3.37,3.76-6.67,7.59-10,11.39-.89,1.39-2,2.6-3,3.9l0,0c-2.33,0-.84-1.23-.62-2l.08-.12a21.62,21.62,0,0,0,2.42-3.35c5.61-8,11.88-15.51,18.13-23,2.78-3.22,5.69-6.31,8.46-9.54l.94-1.08c2.21-2.28,4.5-4.48,6.63-6.85,7.8-7.72,15.71-15.33,24.08-22.46a352.73,352.73,0,0,1,38.53-28.52,337.32,337.32,0,0,1,32.47-18.18Q889,449,901.38,444.32c7.77-3,15.67-5.58,23.67-7.93,9.6-2.84,19.33-5.11,29.12-7.05,5.49-1.09,11.08-2.32,16.78-1.31,4.57.81,9.16,1.51,13.7,2.48,5.81,1.24,11.63,2.53,17.35,4.14,7.07,2,14.1,4.11,21,6.54s13.7,5.19,20.44,8.08A320.79,320.79,0,0,1,1108,486.68a367.42,367.42,0,0,1,31,25.8q8.52,8,16.51,16.49c.68.33.57,1.39,1.42,1.58.83,1,1.74,1.92,2.63,2.86a360.82,360.82,0,0,1,26.58,32.46c5.61,7.64,11,15.46,15.92,23.54,4.84,7.9,9.62,15.86,13.9,24.09,1.84,3.66,3.92,7.21,5.49,11,3.31,7,6.89,13.94,9.84,21.15,3.7,9.07,7.25,18.18,10.48,27.43,3.44,9.83,6.4,19.78,9.1,29.82,1.84,6.85,3.32,13.8,4.81,20.75,2,9.08,3.51,18.23,4.86,27.41.69,4.74,1.06,9.58,1.66,14.34,2.08,16.58,2,33.2,2,49.84a14.53,14.53,0,0,1-.29,4.46c-1.52,1-3.22.39-4.84.49-1.9.11-3.81.06-5.72,0-2.48-.06-3-.43-2.83-3,.47-9.38-.82-18.68-1.39-28A66.93,66.93,0,0,0,1248,780c-.88-7-1.64-14.05-3-21-.66-5.12-1.6-10.21-2.61-15.25-1-4.8-2.14-9.58-3.28-14.35-.89-3.74-2.16-7.39-2.76-11.2-1.53-4.71-2.37-9.63-4.29-14.22l-.11-.93c-.8-.81-.16-2.13-1-2.9L1230,698c-.68-1.52-.48-3.32-1.5-4.74-2.23-7-4.88-13.91-7.56-20.78-1-2.49-2.18-4.89-3-7.45-.61-1.69-1.81-3.13-2-5-.7-1.32-1.32-2.68-1.94-4h0c-.82-1.47-1.13-3.19-2.2-4.54-3.21-7.37-6.89-14.5-10.76-21.53a7.56,7.56,0,0,0-1-1.95c-.28-1.52-1.58-2.51-2.07-3.93-1.92-3.22-3.51-6.64-6-9.53h0c-1.36-3.86-3.92-7-6-10.47-1.32-2-2.65-4-4-6a13.37,13.37,0,0,0-2-3h0c-2.28-3.37-4.63-6.69-7-10a383.86,383.86,0,0,0-26-32c-3.72-4-7.3-8-11.1-11.89a11.34,11.34,0,0,1-3-3c-4.21-4.12-8.5-8.16-12.93-12.06-4.73-4.06-9.35-8.25-14.21-12.15-5.49-4.41-11.2-8.56-16.81-12.82-3.88-2.83-7.91-5.44-12-8a57.2,57.2,0,0,0-8-5,197.46,197.46,0,0,0-18-10.36A25.57,25.57,0,0,0,1048,476l-8-4c-4.54-1.92-9-4-13.42-6.15-.87-.41-1.83-.18-2.63-.68-4.18-2.05-8.71-3.24-12.94-5.16l-9-3.07c-1.94-.89-4.08-1.12-6-1.94h0c-6.57-2.13-13.28-3.75-20-5.3a78.36,78.36,0,0,0-11.91-2.22c-.67,0-1.31-.26-2-.3a9.41,9.41,0,0,0-4.29-.71c-4.83-1.26-9.5-.11-14.28.64-4.44.7-8.82,1.71-13.25,2.49-3.43.6-6.85,1.54-10.25,2.4h0c-4.69,1.24-9.32,2.72-14,4a305.38,305.38,0,0,0-53.77,23q-11.93,6.5-23.21,14.05C825.69,495.35,822.35,497.68,819,500Z" transform="translate(-448.05 -28.05)"/><path class="cls-1" d="M729.73,568.87c-.06-3.82-.17-7.65-.17-11.47q0-104.58,0-209.14c0-1,.11-2,.17-3,.66-1.28,1.88-1.26,3-1.26,10.66,0,21.33-.06,32,0,3.09,0,4.13,1.16,4.27,4.28,0,.66,0,1.33,0,2q0,84.46,0,169c0,2.14.32,4.4-1.7,6a11.35,11.35,0,0,0-4.6,3.68c-2.67,3.05-5.28,6.16-8.11,9.07a6.51,6.51,0,0,0-1.23,2.13c-5,6.66-10.62,12.77-15.43,19.55-1.59,2.23-3.31,4.37-4.92,6.58C732.2,567.39,731.59,569,729.73,568.87Z" transform="translate(-448.05 -28.05)"/><path class="cls-1" d="M1189.32,555.77c-6.12-7.4-11.94-15-18.32-22.24-3.46-3.9-6.94-7.76-10.61-11.45a95.67,95.67,0,0,0-7.47-7.86A11.64,11.64,0,0,1,1151,512c0-1.83-.06-3.66-.06-5.49q0-78.4,0-156.81c0-1.49.08-3,.12-4.48.78-1.1,2-1.16,3.14-1.16,10.57,0,21.14-.05,31.71,0,3.21,0,4.34,1.19,4.51,4.35,0,.75,0,1.5,0,2.25q0,100.14,0,200.29C1190.47,552.57,1191,554.47,1189.32,555.77Z" transform="translate(-448.05 -28.05)"/><path class="cls-23" d="M1189.32,555.77c0-2.66.14-5.32.14-8q0-99.78.06-199.55c0-2.44-.8-3.11-3.19-3.09-11.74.1-23.48,0-35.22,0-.06-5.33-.08-10.65-.2-16,0-1.65.79-1.91,2.17-1.9,5.41,0,10.82,0,16.24,0q16,0,32-.05c1.38,0,2.11.18,2.11,1.89q-.11,71-.1,141.91,0,50.47,0,100.94c0,.89.24,1.85-.59,2.85Z" transform="translate(-448.05 -28.05)"/><path class="cls-1" d="M890.13,439.54c-4.12,2.73-8.89,4.13-13.3,6.27-7.46,3.62-14.76,7.49-22,11.45-2.13,1.17-2.44,1-2.45-1.48,0-6.91,0-13.82,0-20.73q0-42.43,0-84.89c0-1.57.13-3.15.2-4.72.76-1.23,2-1.42,3.26-1.43,10.25,0,20.49-.06,30.74,0,3.07,0,4.32,1.4,4.48,4.5,0,.58,0,1.17,0,1.75q0,42.48,0,85C891,436.73,891.24,438.28,890.13,439.54Z" transform="translate(-448.05 -28.05)"/><path class="cls-1" d="M1066.84,450.85c-4.19-2-8.39-3.9-12.57-5.86-7.08-3.34-14.28-6.42-21.63-9.11-3.76-1.37-3.78-1.3-3.78-5.24q0-41.74,0-83.49c0-.65.1-1.3.16-2,.72-1.19,1.93-1.17,3.09-1.17,10.32,0,20.64-.06,31,0,3.57,0,4.88,1.41,4.92,5.11.06,6.32,0,12.65,0,19q0,39.19,0,78.38C1068,448,1068.39,449.7,1066.84,450.85Z" transform="translate(-448.05 -28.05)"/><path class="cls-23" d="M766.08,525.06c2.32-1.06,2-3.14,2-5.1q0-69.29,0-138.58c0-11.07,0-22.14.05-33.21,0-2.26-.57-3-2.94-3-11.81.13-23.63.09-35.45.11-.08-5.49-.14-11-.24-16.47,0-1.08.49-1.5,1.51-1.49,1.41,0,2.83,0,4.24,0,14.75,0,29.5,0,44.25,0,1.93,0,2.57.47,2.57,2.5Q782,420,782,510.24a4.16,4.16,0,0,1-1.22,3.33,386.83,386.83,0,0,0-50.27,61c0,.06-.14.07-.51.26-.79-2-.41-4-.27-6,2.28-1.73,3.53-4.3,5.18-6.52,5.3-7.14,10.84-14.09,16.55-20.89.45-.54.59-1.43,1.48-1.56,3.61-4.74,7.74-9,11.79-13.4A10.81,10.81,0,0,1,766.08,525.06Z" transform="translate(-448.05 -28.05)"/><path class="cls-4" d="M1066.84,450.85q0-51.36.08-102.72c0-2.36-1-3-3.18-3-11.57.06-23.15,0-34.72,0-.77-5.46-.18-10.95-.3-16.42,0-1.3,1-1.52,2.13-1.52,15.91,0,31.81.06,47.71,0,1.7,0,2.13.67,2.1,2.22-.08,3.42,0,6.83,0,10.24V455.39c0,3.21,0,3.21-2.83,1.62Z" transform="translate(-448.05 -28.05)"/><path class="cls-24" d="M890.13,439.54q0-45.72.06-91.45c0-1.82-.46-2.88-2.46-2.88-11.41,0-22.82,0-34.23,0a4.72,4.72,0,0,0-1,.19c-.06-5.49-.07-11-.18-16.47,0-2.05,1.38-1.71,2.56-1.71l35.46,0c3.66,0,7.33,0,11-.08,2.07-.06,3,.6,3,2.85q-.07,50.69,0,101.38c0,1.46.05,2.89-1.69,3.48C898.41,436.36,894.47,438.5,890.13,439.54Z" transform="translate(-448.05 -28.05)"/><path class="cls-23" d="M765.11,636.06c2.9-4.92,5.74-9.89,8.72-14.77a340.23,340.23,0,0,1,21.37-31.22c4.43-5.72,8.9-11.4,13.74-16.78,1.94-2.17,3.51-4.71,6-6.38,2.92-2.75,5.27-6.06,8.47-8.53.44-.34.89-1,1.47-.42s0,1-.31,1.5l-1.93,2.16a23.69,23.69,0,0,0-3.56,3.93h0a48.48,48.48,0,0,0-5,5.54q-4.82,6.07-9.65,12.13a333.92,333.92,0,0,0-23.35,33.43,363.09,363.09,0,0,0-24.29,46.83c-3.75,8.7-7.07,17.58-10.21,26.53-3.51,10-6.5,20.11-9.15,30.33-2.3,8.87-4.08,17.88-5.76,26.9-1.61,8.66-2.82,17.38-3.86,26.1s-1.17,17.42-1.79,26.12c-.48,6.81,0,13.63-.7,20.42-3.87.73-7.78.21-11.66.29a1.6,1.6,0,0,1-1.59-2.09c1.12-6.15-.43-12.46,1.19-18.57a5.33,5.33,0,0,0,.25-1.47c-.11-7.42,1.56-14.65,2.36-22,.48-4.37,1.39-8.73,2.16-13.09a70.53,70.53,0,0,0,2.05-10c1.13-4,1.87-8,2.92-12v0c1.15-4.67,2.26-9.36,3.61-14,1.06-3.68,2.29-7.32,3.37-11l0,0c.83-.83.38-2.08,1-3v0c.82-.83.4-2.07,1-3l0,0c.85-.81.35-2.09,1-3q4.07-10.62,8.13-21.25c.23-.62.55-1.19.84-1.79.79-1.6,1.35-3.31,2-5h0q2.47-5.51,5-11,4.5-9,9-18C760.18,645.24,762.85,640.76,765.11,636.06Z" transform="translate(-448.05 -28.05)"/><path class="cls-25" d="M824.57,559.46c0-.33.18-.77,0-1-.44-.54-.65.11-.87.32-2.29,2.25-4.53,4.54-6.84,6.77-.56.53-.93,1.43-1.95,1.32,1.71-3.25,4.55-5.52,7.08-8a315.17,315.17,0,0,1,23.67-21.68c5.43-4.41,11-8.61,16.59-12.87a8.46,8.46,0,0,1,1.78-.8,1.25,1.25,0,0,1,.12,1.37,324.67,324.67,0,0,0-38.43,33.88C825.41,559.11,825.19,559.62,824.57,559.46Z" transform="translate(-448.05 -28.05)"/><path class="cls-26" d="M934.47,487c4.85-2.24,10.07-3.31,15.14-4.83s10.31-2.69,15.46-4.06c2.35-.62,4.39.58,6.51,1.08,7.32,1.72,14.59,3.61,21.75,5.92,2.92.94,5.81,2,8.72,2.95.5.17.94.36.89,1-2.75.1-5.05-1.44-7.5-2.25-6.84-2.27-13.94-3.68-20.69-6.05-7.53-2.65-14.35-.47-21.36,1.35a138,138,0,0,0-15.92,4.77,6.51,6.51,0,0,1-1.73.2A1.14,1.14,0,0,1,934.47,487Z" transform="translate(-448.05 -28.05)"/><path class="cls-27" d="M711.84,820.53l-.33-.64a335.78,335.78,0,0,1,5.23-51.4c.34-1.86.24-3.82,1.29-5.51.44,4.27-.94,8.29-1.71,12.39-.51,2.76-.75,5.6-1,8.34-.8,8.65-2.32,17.25-2.34,26,0,2.65-.27,5.31-.41,8-.07,1.44.29,2.44,2,2.39,3.57-.09,7.14-.12,10.71-.17-.34,1.26-1.36.62-2,.63C719.47,820.57,715.65,820.53,711.84,820.53Z" transform="translate(-448.05 -28.05)"/><path class="cls-28" d="M745.41,568c.38.62-1,1.77.62,2-.63,2.41-2.6,4-3.95,5.87-3.21,4.56-6.61,9-10,13.47a3.29,3.29,0,0,1-2.32,1.69c4.53-7.88,9.79-15.28,15-22.72C744.92,568.17,745.21,568.11,745.41,568Z" transform="translate(-448.05 -28.05)"/><path class="cls-29" d="M682,703.48c.48,2.49-.72,4.74-1.23,7-1.52,6.77-3.09,13.52-4.41,20.35-1.27,6.6-2.33,13.23-3.35,19.87a4,4,0,0,1-1,2.26c-.21-4.15.9-8.11,1.66-12.12.41-2.19.67-4.4,1-6.59,1.33-7.9,3.13-15.69,4.92-23.49.57-2.47,1-5,1.68-7.41C681.64,703.15,681.85,703.19,682,703.48Z" transform="translate(-448.05 -28.05)"/><path class="cls-30" d="M1248,780c1.47,3.86,1.53,8,1.82,12,.61,8.53,1.49,17.06,1.16,25.63-.06,1.59.62,2.39,2.17,2.35,3.57-.08,7.15.29,10.71-.22.07.35.06.75-.37.75-4.54-.06-9.11.56-13.63-.37,0-6.71,0-13.39-.53-20.12S1247.51,786.68,1248,780Z" transform="translate(-448.05 -28.05)"/><path class="cls-31" d="M864.18,524.88l-.12-1.36c2.67-3,6.25-4.66,9.53-6.78A167.9,167.9,0,0,1,889,507.51,3,3,0,0,1,891,507c-.59,1.45-2.12,1.64-3.24,2.33-7.74,4.83-15.42,9.74-22.77,15.16A4,4,0,0,1,864.18,524.88Z" transform="translate(-448.05 -28.05)"/><path class="cls-32" d="M1134,822.48a4.36,4.36,0,0,1-1-3.24c-.13-6.73-.09-13.47-.46-20.18-.31-5.7-1.31-11.37-1.61-17.07-.25-4.54-2-8.91-1.45-13.51,1.54,4.34,1.83,8.94,2.3,13.42a360.41,360.41,0,0,1,2.31,40.1A2.11,2.11,0,0,1,1134,822.48Z" transform="translate(-448.05 -28.05)"/><path class="cls-33" d="M1184.93,686c2,3.05,2.9,6.58,4,10,2,6.36,4.19,12.7,5.74,19.18.92,3.86,2.73,7.61,2.33,11.75-1-.85-.83-2.09-1.13-3.19-2.08-7.67-4.07-15.36-6.43-22.95C1187.9,695.92,1185.58,691.22,1184.93,686Z" transform="translate(-448.05 -28.05)"/><path class="cls-34" d="M1136,593c2.73,2.22,4.31,5.36,6.29,8.15,2.88,4.08,5.47,8.36,8.2,12.54a1.82,1.82,0,0,1,.44,1.36c-1.75-1-2.36-2.84-3.41-4.35-3.56-5.15-7-10.35-10.56-15.54C1136.5,594.5,1135.69,594,1136,593Z" transform="translate(-448.05 -28.05)"/><path class="cls-35" d="M1104.9,556.09c2.84,1.26,4.2,4.09,6.35,6.1,2.4,2.26,4.46,4.89,6.69,7.35.61.68,1.32,1.29,1.13,2.35-4-3.54-7.2-7.86-10.91-11.68C1107,559,1105,558.21,1104.9,556.09Z" transform="translate(-448.05 -28.05)"/><path class="cls-36" d="M1155.51,529c-2.79-1.89-4.84-4.55-7.15-6.92-3.11-3.2-6.68-5.95-9.36-9.57,2,.73,3.19,2.55,4.65,3.95,3.57,3.44,7,7,10.53,10.49A3.9,3.9,0,0,1,1155.51,529Z" transform="translate(-448.05 -28.05)"/><path class="cls-37" d="M1154,620c1.71,1.06,2.1,3,3,4.57,1.9,3.17,3.7,6.39,5.58,9.57a2.76,2.76,0,0,1,.35,1.89c-.73,0-.92-.65-1.17-1.14-2.35-4.49-4.73-9-7.5-13.24A4.49,4.49,0,0,1,1154,620Z" transform="translate(-448.05 -28.05)"/><path class="cls-38" d="M1070.05,525.93c.47.09,1.08,0,1.41.27,3.84,3.07,7.65,6.2,11.45,9.32.09.08.06.31.08.47-2-.21-3-1.85-4.36-3C1075.85,530.54,1072.51,528.77,1070.05,525.93Z" transform="translate(-448.05 -28.05)"/><path class="cls-39" d="M901.88,500.91c3.89-1.93,7.78-3.88,11.69-5.77A4,4,0,0,1,915,495c-.61,1.43-2.11,1.42-3.25,2-3.24,1.56-6.51,3-9.78,4.54A.35.35,0,0,1,901.88,500.91Z" transform="translate(-448.05 -28.05)"/><path class="cls-31" d="M901.88,500.91c0,.2.08.4.11.61-3,1.66-6.12,3.3-9.15,5A2.64,2.64,0,0,1,891,507c.27-1.49,1.56-1.73,2.66-2.27C896.4,503.45,898.9,501.67,901.88,500.91Z" transform="translate(-448.05 -28.05)"/><path class="cls-40" d="M712,623a53.53,53.53,0,0,1-6,13c.26-3.47,2.39-6.21,3.73-9.24C710.29,625.44,710.78,623.93,712,623Z" transform="translate(-448.05 -28.05)"/><path class="cls-41" d="M1121,574c3,1.95,4.7,5.14,6.9,7.82.77.94,2.13,1.68,2,3.22-2.39-1.31-3.35-3.9-5.07-5.81C1123.44,577.61,1121.58,576.24,1121,574Z" transform="translate(-448.05 -28.05)"/><path class="cls-42" d="M1151,512c3.25,2.64,6,5.82,8.87,8.8a1.33,1.33,0,0,1,.48,1.33c-3.49-2.55-6.05-6-9.17-9C1151,512.9,1151.09,512.35,1151,512Z" transform="translate(-448.05 -28.05)"/><path class="cls-43" d="M1044.94,509.06c2.76.57,4.92,2.33,7.14,3.86,1.35.93,3.21,1.3,3.94,3.05-2.91-.62-4.93-2.82-7.39-4.25C1047.35,511,1045.66,510.64,1044.94,509.06Z" transform="translate(-448.05 -28.05)"/><path class="cls-44" d="M880,613.47a40.11,40.11,0,0,1-8.45,9A34.46,34.46,0,0,1,880,613.47Z" transform="translate(-448.05 -28.05)"/><path class="cls-45" d="M774.5,532a41.16,41.16,0,0,1-8.46,9.54A41.81,41.81,0,0,1,774.5,532Z" transform="translate(-448.05 -28.05)"/><path class="cls-46" d="M1221.45,624.5a48.75,48.75,0,0,1-5.49-11C1218.33,616.9,1220.52,620.39,1221.45,624.5Z" transform="translate(-448.05 -28.05)"/><path class="cls-47" d="M934.47,487l1.27.08c-2.85,1.14-5.49,2.93-8.72,2.95C929.19,488.23,931.89,487.75,934.47,487Z" transform="translate(-448.05 -28.05)"/><path class="cls-48" d="M682,703.48l-.65-.09c.83-2.82,1.26-5.76,2.69-8.38C684.34,698.06,683.18,700.77,682,703.48Z" transform="translate(-448.05 -28.05)"/><path class="cls-49" d="M671,761a50.77,50.77,0,0,1-.12,7.7c0,.6-.15,1.16-.86,1.33A20.36,20.36,0,0,1,671,761Z" transform="translate(-448.05 -28.05)"/><path class="cls-45" d="M782.07,524.05a22.12,22.12,0,0,1-6.63,6.85A28,28,0,0,1,782.07,524.05Z" transform="translate(-448.05 -28.05)"/><path class="cls-39" d="M915,495c1.92-1.95,4.4-2.62,7-3A12.89,12.89,0,0,1,915,495Z" transform="translate(-448.05 -28.05)"/><path class="cls-40" d="M716.06,615a16.61,16.61,0,0,1-4,8A22.85,22.85,0,0,1,716.06,615Z" transform="translate(-448.05 -28.05)"/><path class="cls-25" d="M814.08,571.09a10.56,10.56,0,0,1,5-5.54A17.08,17.08,0,0,1,814.08,571.09Z" transform="translate(-448.05 -28.05)"/><path class="cls-48" d="M688,682.47a9.21,9.21,0,0,1-1.94,6A8.76,8.76,0,0,1,688,682.47Z" transform="translate(-448.05 -28.05)"/><path class="cls-50" d="M932.43,572.92a13.53,13.53,0,0,1-6.36,3.64A15.3,15.3,0,0,1,932.43,572.92Z" transform="translate(-448.05 -28.05)"/><path class="cls-47" d="M922,492a6.76,6.76,0,0,1,5-2A6.47,6.47,0,0,1,922,492Z" transform="translate(-448.05 -28.05)"/><path class="cls-25" d="M819.08,565.55a6.21,6.21,0,0,1,3.56-3.93A10.68,10.68,0,0,1,819.08,565.55Z" transform="translate(-448.05 -28.05)"/><path class="cls-51" d="M860.42,635.91a6.21,6.21,0,0,1-3,4A7,7,0,0,1,860.42,635.91Z" transform="translate(-448.05 -28.05)"/><path class="cls-28" d="M747.91,564.53a4.28,4.28,0,0,1-2.42,3.35A6.78,6.78,0,0,1,747.91,564.53Z" transform="translate(-448.05 -28.05)"/><path class="cls-48" d="M686,689c0,1.1.61,2.42-1,3C684.9,690.82,684.8,689.68,686,689Z" transform="translate(-448.05 -28.05)"/><path class="cls-48" d="M685,692c-.07,1.09.62,2.42-1,3A3,3,0,0,1,685,692Z" transform="translate(-448.05 -28.05)"/><path class="cls-52" d="M1159.56,533.41a5.23,5.23,0,0,1-2.63-2.86A4.05,4.05,0,0,1,1159.56,533.41Z" transform="translate(-448.05 -28.05)"/><path class="cls-53" d="M1320.94,332c-2,2.36-2.83,5.3-3.92,8.08-1.57,4-2.57,4.95-6.83,4.95-10.32,0-20.64-.11-31-.06-1.93,0-2.42-.7-2.38-2.48q.15-6.24,0-12.49c0-1.92.76-2.43,2.52-2.43q20.36.06,40.71,0c1.66,0,2.2.47,1.35,2a3.63,3.63,0,0,0-.49,2.39Z" transform="translate(-448.05 -28.05)"/><path class="cls-54" d="M1236.52,718c2,5.79,3.07,11.81,4.45,17.76s2.63,12,3.84,18A15.7,15.7,0,0,1,1245,759c-1.73-4.43-1.75-9.22-2.89-13.78-1.73-6.87-2.76-13.9-4.85-20.72-.62-2-1.62-4.18-1.28-6.48C1236.14,717.7,1236.32,717.69,1236.52,718Z" transform="translate(-448.05 -28.05)"/><path class="cls-55" d="M920,452c1.37-1.48,3.4-1.25,5.08-1.65,5.76-1.38,11.61-2.42,17.4-3.64,3-.62,6.07-.3,9-1.49,2.19-.89,4.3,1,6.55.79.57.6,1.65-.26,2.09.73l-.14.31c-9.31-1.9-18.12,1-27.1,2.6C928.57,450.43,924.48,452.3,920,452Z" transform="translate(-448.05 -28.05)"/><path class="cls-56" d="M964,447c2.62-.33,5,.81,7.5,1.28,6.56,1.25,13,3.05,19.47,4.76,1.71.46,3.6.62,5,2-3.52.46-6.5-1.5-9.74-2.26-6.44-1.51-12.85-3.08-19.34-4.3a5.07,5.07,0,0,1-.91-.36C965.61,447.2,964.05,448.5,964,447Z" transform="translate(-448.05 -28.05)"/><path class="cls-57" d="M1218,665c1.79,1.51,2.06,3.82,2.87,5.79,2.41,5.86,4.58,11.81,6.79,17.75.54,1.44.87,3,1.29,4.44-.54.28-.68-.21-.93-.49-1.93-5.19-3.76-10.41-5.83-15.55-1.25-3.1-2.19-6.34-3.87-9.28A4,4,0,0,1,1218,665Z" transform="translate(-448.05 -28.05)"/><path class="cls-58" d="M730,716c.43,3.38-1.44,6.27-2.25,9.34-1.22,4.64-2.57,9.27-3.8,13.92A3,3,0,0,1,723,741c-.32-3.7,1.32-7,2.16-10.48,1.13-4.63,2.64-9.16,4-13.74A.92.92,0,0,1,730,716Z" transform="translate(-448.05 -28.05)"/><path class="cls-59" d="M768,544.92a2.24,2.24,0,0,1,.79-2c4.77-4.57,9.52-9.17,14.29-13.74.2-.19.61-.17.92-.25.11.93-.71,1.28-1.2,1.77-4.35,4.31-8.93,8.38-13,13C769.28,544.23,768.83,544.92,768,544.92Z" transform="translate(-448.05 -28.05)"/><path class="cls-60" d="M1200,628c2,1.62,2.71,4.08,3.84,6.23,2.67,5.11,5.18,10.31,7.73,15.49a9.73,9.73,0,0,1,.49,1.64.49.49,0,0,1-.14.76c-3-6-6.09-11.94-9-18C1201.94,632.06,1199.92,630.49,1200,628Z" transform="translate(-448.05 -28.05)"/><path class="cls-61" d="M1048,476c2.77.08,4.82,1.92,7.08,3.1,4.5,2.35,8.75,5.16,13.12,7.76.45.27.84.53.81,1.12-4.79-2.62-9.61-5.16-14.34-7.88C1052.39,478.83,1049.74,478.13,1048,476Z" transform="translate(-448.05 -28.05)"/><path class="cls-62" d="M1024.08,464.87c3.7.38,6.68,2.6,10,4,2,.87,4.3,1.44,5.93,3.13-3.14.08-5.39-2.18-8.14-3.13s-5.22-2.27-7.83-3.43A.38.38,0,0,1,1024.08,464.87Z" transform="translate(-448.05 -28.05)"/><path class="cls-63" d="M1120,526c1.42,0,2.12,1.24,3,2,3.38,3.28,7.35,6,10,10-1.35,0-1.88-1.23-2.69-2-3.22-2.92-6.34-5.94-9.53-8.89C1120.33,526.82,1120,526.55,1120,526Z" transform="translate(-448.05 -28.05)"/><path class="cls-9" d="M1135.92,541.07c3.36,1.92,5.44,5.17,8,7.91,1.12,1.21,2.75,2.13,3.12,4-2.83-1.52-4.54-4.22-6.62-6.48C1138.84,544.77,1136.55,543.58,1135.92,541.07Z" transform="translate(-448.05 -28.05)"/><path class="cls-64" d="M1236.52,718l-.56,0c-1.59-3.09-2-6.54-2.9-9.82-.39-1.36-1.57-2.62-1-4.22,1.63,1.28,1.54,3.33,2.13,5A44.62,44.62,0,0,1,1236.52,718Z" transform="translate(-448.05 -28.05)"/><path class="cls-65" d="M765.11,636.06c.28,1.19-.5,2-1,3-1.72,3.33-3.44,6.67-5.13,10-.23.45-.37.92-1,.92.74-3.59,2.76-6.63,4.46-9.78C763.22,638.78,763.73,637.11,765.11,636.06Z" transform="translate(-448.05 -28.05)"/><path class="cls-14" d="M1077,493c1.85-.33,2.82,1.24,4,2.07,2.73,1.84,5.81,3.27,7.91,6A51.55,51.55,0,0,1,1077,493Z" transform="translate(-448.05 -28.05)"/><path class="cls-55" d="M906,456a45.94,45.94,0,0,1,14-4c0,.16-.08.43-.16.45C915.22,453.52,910.93,456,906,456Z" transform="translate(-448.05 -28.05)"/><path class="cls-66" d="M1024.08,464.87c0,.2,0,.39-.07.59-4.37-1.73-9-2.74-13-5.43,3.6.42,6.81,2.1,10.1,3.43C1022.07,463.86,1023.52,463.52,1024.08,464.87Z" transform="translate(-448.05 -28.05)"/><path class="cls-67" d="M1173,585a29.56,29.56,0,0,1,7,10c-1.71-.74-2.3-2.49-3.2-3.86C1175.47,589.12,1173.44,587.52,1173,585Z" transform="translate(-448.05 -28.05)"/><path class="cls-68" d="M749,668a31.28,31.28,0,0,1-5,11A29.86,29.86,0,0,1,749,668Z" transform="translate(-448.05 -28.05)"/><path class="cls-69" d="M819,500a31.1,31.1,0,0,1,10-6.95c-.61,1.86-2.48,2.3-3.86,3.16C823.13,497.47,821.62,499.65,819,500Z" transform="translate(-448.05 -28.05)"/><path class="cls-70" d="M1186,604c2.78,3,5.27,6.26,6,10.47C1190,611,1187.31,607.88,1186,604Z" transform="translate(-448.05 -28.05)"/><path class="cls-71" d="M1192,614.49a3.65,3.65,0,0,1,2.24,2.16c1.19,2.48,3.27,4.51,3.72,7.37-2.24-1.57-2.67-4.36-4.27-6.38C1193,616.76,1191.88,615.88,1192,614.49Z" transform="translate(-448.05 -28.05)"/><path class="cls-58" d="M723,741a33.25,33.25,0,0,1-2.92,12c-.31-2.78.76-5.35,1.5-7.89C722,743.77,721.11,741.82,723,741Z" transform="translate(-448.05 -28.05)"/><path class="cls-56" d="M996,455c2.17.16,4.33.36,6,1.94A9.29,9.29,0,0,1,996,455Z" transform="translate(-448.05 -28.05)"/><path class="cls-72" d="M1228,692.48l.93.49a7.19,7.19,0,0,1,1.07,5C1228.73,696.36,1228.48,694.38,1228,692.48Z" transform="translate(-448.05 -28.05)"/><path class="cls-28" d="M746.06,570a6.12,6.12,0,0,1,3-3.9C748.91,568.06,747.58,569.1,746.06,570Z" transform="translate(-448.05 -28.05)"/><path class="cls-68" d="M744,679c-.11,1.89-.46,3.68-2,5A7.07,7.07,0,0,1,744,679Z" transform="translate(-448.05 -28.05)"/><path class="cls-73" d="M1214,656a4.54,4.54,0,0,1,1.94,4A4.29,4.29,0,0,1,1214,656Z" transform="translate(-448.05 -28.05)"/><path class="cls-73" d="M1211.93,652.07c0-.25.09-.5.13-.76,1.06,1.38,2.13,2.76,1.93,4.66C1212.4,655.15,1212.64,653.36,1211.93,652.07Z" transform="translate(-448.05 -28.05)"/><path class="cls-55" d="M964,447c.48.69,1.57.25,2,1.08a25.05,25.05,0,0,1-6-1l.06-.1a1.76,1.76,0,0,1,2.14-.05Z" transform="translate(-448.05 -28.05)"/><path class="cls-67" d="M1180,595c1.29.58,2.2,1.41,2,3C1180.61,597.47,1180.32,596.21,1180,595Z" transform="translate(-448.05 -28.05)"/><path class="cls-74" d="M731,713c-.16,1,.74,2.45-1,3A3,3,0,0,1,731,713Z" transform="translate(-448.05 -28.05)"/><path class="cls-74" d="M732,710c-.07,1.08.63,2.41-1,3A3,3,0,0,1,732,710Z" transform="translate(-448.05 -28.05)"/><path class="cls-74" d="M733,707c-.14,1.06.63,2.43-1,3A2.89,2.89,0,0,1,733,707Z" transform="translate(-448.05 -28.05)"/><path class="cls-72" d="M1230.88,700.11c1.15.68,1.18,1.76,1,2.9C1230.45,702.45,1231,701.17,1230.88,700.11Z" transform="translate(-448.05 -28.05)"/><path class="cls-56" d="M962.16,446.92,960,447l-2-.94C959.42,446.18,961,445.49,962.16,446.92Z" transform="translate(-448.05 -28.05)"/><path class="cls-75" d="M766.08,525.06c.18,1.38-1.11,1.73-1.78,2.49-3.21,3.67-6.47,7.29-9.71,10.92-.49.55-.83,1.27-1.65,1.43a2.23,2.23,0,0,1,.58-1.82q5.58-6.09,11.14-12.19C765.05,525.47,765.39,525,766.08,525.06Z" transform="translate(-448.05 -28.05)"/></svg>